<svg xmlns="http://www.w3.org/2000/svg" viewBox="0 0 32 32">
    <path id="zoom" d="M20.10554,4H11.89446A7.89446,7.89446,0,0,0,4,11.89446v8.21108A7.89446,7.89446,0,0,0,11.89446,28h8.21108A7.89446,7.89446,0,0,0,28,20.10554V11.89446A7.89446,7.89446,0,0,0,20.10554,4Zm-.73777,15.08546A1.11957,1.11957,0,0,1,18.2482,20.205h-6.981a2.68441,2.68441,0,0,1-2.68441-2.68442V13.027a1.232,1.232,0,0,1,1.232-1.232h6.70857a2.84437,2.84437,0,0,1,2.84438,2.84438Zm4.14163.40563a.71395.71395,0,0,1-1.21817.50544l-1.88257-1.87807a1.65461,1.65461,0,0,1-.486-1.1714V15.213a1.65463,1.65463,0,0,1,.486-1.1714l1.88257-1.87806a.71394.71394,0,0,1,1.21817.50543Z" fill="#fff"/>
</svg>
